<?xml version="1.0" encoding="UTF-8" standalone="no"?>
<!-- Created with Inkscape (http://www.inkscape.org/) -->

<svg
   xmlns:dc="http://purl.org/dc/elements/1.1/"
   xmlns:cc="http://creativecommons.org/ns#"
   xmlns:rdf="http://www.w3.org/1999/02/22-rdf-syntax-ns#"
   xmlns:svg="http://www.w3.org/2000/svg"
   xmlns="http://www.w3.org/2000/svg"
   xmlns:xlink="http://www.w3.org/1999/xlink"
   xmlns:sodipodi="http://sodipodi.sourceforge.net/DTD/sodipodi-0.dtd"
   xmlns:inkscape="http://www.inkscape.org/namespaces/inkscape"
   sodipodi:docname="WebpageTitle.svg"
   inkscape:version="0.92.5 (2060ec1f9f, 2020-04-08)"
   id="svg8"
   version="1.1"
   viewBox="0 0 210 297"
   height="297mm"
   width="210mm">
  <defs
     id="defs2">
    <linearGradient
       inkscape:collect="always"
       id="linearGradient1737">
      <stop
         style="stop-color:#56aef2;stop-opacity:1;"
         offset="0"
         id="stop1733" />
      <stop
         style="stop-color:#56aef2;stop-opacity:0;"
         offset="1"
         id="stop1735" />
    </linearGradient>
    <linearGradient
       inkscape:collect="always"
       id="linearGradient858">
      <stop
         style="stop-color:#56aef2;stop-opacity:1;"
         offset="0"
         id="stop854" />
      <stop
         style="stop-color:#56aef2;stop-opacity:0;"
         offset="1"
         id="stop856" />
    </linearGradient>
    <linearGradient
       inkscape:collect="always"
       id="linearGradient850">
      <stop
         style="stop-color:#56aef2;stop-opacity:1;"
         offset="0"
         id="stop846" />
      <stop
         style="stop-color:#56aef2;stop-opacity:0;"
         offset="1"
         id="stop848" />
    </linearGradient>
    <linearGradient
       inkscape:collect="always"
       xlink:href="#linearGradient850"
       id="linearGradient852"
       x1="59.644428"
       y1="51.661701"
       x2="196.60236"
       y2="50.90575"
       gradientUnits="userSpaceOnUse" />
    <linearGradient
       inkscape:collect="always"
       xlink:href="#linearGradient858"
       id="linearGradient860"
       x1="59.644428"
       y1="51.661701"
       x2="196.60236"
       y2="50.90575"
       gradientUnits="userSpaceOnUse" />
    <linearGradient
       inkscape:collect="always"
       xlink:href="#linearGradient850"
       id="linearGradient1591"
       gradientUnits="userSpaceOnUse"
       x1="59.644428"
       y1="51.661701"
       x2="196.60236"
       y2="50.90575"
       gradientTransform="translate(-7.6171815,-5.2117558)" />
    <linearGradient
       inkscape:collect="always"
       xlink:href="#linearGradient858"
       id="linearGradient1593"
       gradientUnits="userSpaceOnUse"
       x1="59.644428"
       y1="51.661701"
       x2="196.60236"
       y2="50.90575"
       gradientTransform="translate(-7.6171815,-5.2117558)" />
    <linearGradient
       inkscape:collect="always"
       xlink:href="#linearGradient850"
       id="linearGradient1591-3"
       gradientUnits="userSpaceOnUse"
       x1="59.644428"
       y1="51.661701"
       x2="196.60236"
       y2="50.90575"
       gradientTransform="matrix(0.26458333,0,0,0.26458333,116.96912,101.53691)" />
    <radialGradient
       inkscape:collect="always"
       xlink:href="#linearGradient1737"
       id="radialGradient1741"
       cx="89.535294"
       cy="94.476509"
       fx="89.535294"
       fy="94.476509"
       r="54.622986"
       gradientTransform="matrix(1.2254909,8.3192936e-4,4.5280262e-4,0.25869495,-4.4632683,85.128978)"
       gradientUnits="userSpaceOnUse" />
    <radialGradient
       inkscape:collect="always"
       xlink:href="#linearGradient850"
       id="radialGradient1753"
       cx="89.535294"
       cy="94.476509"
       fx="89.535294"
       fy="94.476509"
       r="54.622986"
       gradientTransform="matrix(1.2254909,8.3192936e-4,4.5280262e-4,0.25869495,-4.4632683,85.128978)"
       gradientUnits="userSpaceOnUse" />
    <linearGradient
       inkscape:collect="always"
       xlink:href="#linearGradient850"
       id="linearGradient2384"
       gradientUnits="userSpaceOnUse"
       gradientTransform="translate(49.845766,11.893494)"
       x1="59.644428"
       y1="51.661701"
       x2="196.60236"
       y2="50.90575" />
    <linearGradient
       inkscape:collect="always"
       xlink:href="#linearGradient858"
       id="linearGradient2386"
       gradientUnits="userSpaceOnUse"
       gradientTransform="translate(49.845766,11.893494)"
       x1="59.644428"
       y1="51.661701"
       x2="196.60236"
       y2="50.90575" />
    <linearGradient
       inkscape:collect="always"
       xlink:href="#linearGradient1737"
       id="linearGradient1591-6"
       gradientUnits="userSpaceOnUse"
       x1="-1.0698583"
       y1="-159.05258"
       x2="445.88806"
       y2="-158.37997"
       gradientTransform="matrix(0.26458333,0,0,0.26458333,82.822089,126.23085)" />
    <linearGradient
       inkscape:collect="always"
       xlink:href="#linearGradient1737"
       id="linearGradient3936"
       gradientUnits="userSpaceOnUse"
       gradientTransform="matrix(0.26458333,0,0,0.26458333,82.822089,126.23085)"
       x1="-1.0698583"
       y1="-159.05258"
       x2="445.88806"
       y2="-158.37997" />
    <linearGradient
       inkscape:collect="always"
       xlink:href="#linearGradient1737"
       id="linearGradient3938"
       gradientUnits="userSpaceOnUse"
       gradientTransform="matrix(0.26458333,0,0,0.26458333,82.822089,126.23085)"
       x1="-1.0698583"
       y1="-159.05258"
       x2="445.88806"
       y2="-158.37997" />
    <linearGradient
       inkscape:collect="always"
       xlink:href="#linearGradient1737"
       id="linearGradient3940"
       gradientUnits="userSpaceOnUse"
       gradientTransform="matrix(0.26458333,0,0,0.26458333,82.822089,126.23085)"
       x1="-1.0698583"
       y1="-159.05258"
       x2="445.88806"
       y2="-158.37997" />
    <linearGradient
       inkscape:collect="always"
       xlink:href="#linearGradient1737"
       id="linearGradient3942"
       gradientUnits="userSpaceOnUse"
       gradientTransform="matrix(0.26458333,0,0,0.26458333,82.822089,126.23085)"
       x1="-1.0698583"
       y1="-159.05258"
       x2="445.88806"
       y2="-158.37997" />
    <linearGradient
       inkscape:collect="always"
       xlink:href="#linearGradient1737"
       id="linearGradient3944"
       gradientUnits="userSpaceOnUse"
       gradientTransform="matrix(0.26458333,0,0,0.26458333,82.822089,126.23085)"
       x1="-1.0698583"
       y1="-159.05258"
       x2="445.88806"
       y2="-158.37997" />
    <linearGradient
       inkscape:collect="always"
       xlink:href="#linearGradient1737"
       id="linearGradient3946"
       gradientUnits="userSpaceOnUse"
       gradientTransform="matrix(0.26458333,0,0,0.26458333,82.822089,126.23085)"
       x1="-1.0698583"
       y1="-159.05258"
       x2="445.88806"
       y2="-158.37997" />
    <linearGradient
       inkscape:collect="always"
       xlink:href="#linearGradient1737"
       id="linearGradient3948"
       gradientUnits="userSpaceOnUse"
       gradientTransform="matrix(0.26458333,0,0,0.26458333,82.822089,126.23085)"
       x1="-1.0698583"
       y1="-159.05258"
       x2="445.88806"
       y2="-158.37997" />
    <linearGradient
       inkscape:collect="always"
       xlink:href="#linearGradient1737"
       id="linearGradient3950"
       gradientUnits="userSpaceOnUse"
       gradientTransform="matrix(0.26458333,0,0,0.26458333,82.822089,126.23085)"
       x1="-1.0698583"
       y1="-159.05258"
       x2="445.88806"
       y2="-158.37997" />
    <linearGradient
       inkscape:collect="always"
       xlink:href="#linearGradient1737"
       id="linearGradient3952"
       gradientUnits="userSpaceOnUse"
       gradientTransform="matrix(0.26458333,0,0,0.26458333,82.822089,126.23085)"
       x1="-1.0698583"
       y1="-159.05258"
       x2="445.88806"
       y2="-158.37997" />
    <linearGradient
       inkscape:collect="always"
       xlink:href="#linearGradient1737"
       id="linearGradient3954"
       gradientUnits="userSpaceOnUse"
       gradientTransform="matrix(0.26458333,0,0,0.26458333,82.822089,126.23085)"
       x1="-1.0698583"
       y1="-159.05258"
       x2="445.88806"
       y2="-158.37997" />
    <linearGradient
       inkscape:collect="always"
       xlink:href="#linearGradient1737"
       id="linearGradient3956"
       gradientUnits="userSpaceOnUse"
       gradientTransform="matrix(0.26458333,0,0,0.26458333,82.822089,126.23085)"
       x1="-1.0698583"
       y1="-159.05258"
       x2="445.88806"
       y2="-158.37997" />
    <linearGradient
       inkscape:collect="always"
       xlink:href="#linearGradient1737"
       id="linearGradient3958"
       gradientUnits="userSpaceOnUse"
       gradientTransform="matrix(0.26458333,0,0,0.26458333,82.822089,126.23085)"
       x1="-1.0698583"
       y1="-159.05258"
       x2="445.88806"
       y2="-158.37997" />
    <linearGradient
       inkscape:collect="always"
       xlink:href="#linearGradient1737"
       id="linearGradient3960"
       gradientUnits="userSpaceOnUse"
       gradientTransform="matrix(0.26458333,0,0,0.26458333,82.822089,126.23085)"
       x1="-1.0698583"
       y1="-159.05258"
       x2="445.88806"
       y2="-158.37997" />
    <linearGradient
       inkscape:collect="always"
       xlink:href="#linearGradient1737"
       id="linearGradient3962"
       gradientUnits="userSpaceOnUse"
       gradientTransform="matrix(0.26458333,0,0,0.26458333,82.822089,126.23085)"
       x1="-1.0698583"
       y1="-159.05258"
       x2="445.88806"
       y2="-158.37997" />
    <linearGradient
       inkscape:collect="always"
       xlink:href="#linearGradient1737"
       id="linearGradient3964"
       gradientUnits="userSpaceOnUse"
       gradientTransform="matrix(0.26458333,0,0,0.26458333,82.822089,126.23085)"
       x1="-1.0698583"
       y1="-159.05258"
       x2="445.88806"
       y2="-158.37997" />
    <linearGradient
       inkscape:collect="always"
       xlink:href="#linearGradient1737"
       id="linearGradient3966"
       gradientUnits="userSpaceOnUse"
       gradientTransform="matrix(0.26458333,0,0,0.26458333,82.822089,126.23085)"
       x1="-1.0698583"
       y1="-159.05258"
       x2="445.88806"
       y2="-158.37997" />
    <linearGradient
       inkscape:collect="always"
       xlink:href="#linearGradient1737"
       id="linearGradient3968"
       gradientUnits="userSpaceOnUse"
       gradientTransform="matrix(0.26458333,0,0,0.26458333,82.822089,126.23085)"
       x1="-1.0698583"
       y1="-159.05258"
       x2="445.88806"
       y2="-158.37997" />
    <linearGradient
       inkscape:collect="always"
       xlink:href="#linearGradient1737"
       id="linearGradient3970"
       gradientUnits="userSpaceOnUse"
       gradientTransform="matrix(0.26458333,0,0,0.26458333,82.822089,126.23085)"
       x1="-1.0698583"
       y1="-159.05258"
       x2="445.88806"
       y2="-158.37997" />
    <linearGradient
       inkscape:collect="always"
       xlink:href="#linearGradient1737"
       id="linearGradient3972"
       gradientUnits="userSpaceOnUse"
       gradientTransform="matrix(0.26458333,0,0,0.26458333,82.822089,126.23085)"
       x1="-1.0698583"
       y1="-159.05258"
       x2="445.88806"
       y2="-158.37997" />
    <linearGradient
       inkscape:collect="always"
       xlink:href="#linearGradient1737"
       id="linearGradient3974"
       gradientUnits="userSpaceOnUse"
       gradientTransform="matrix(0.26458333,0,0,0.26458333,82.822089,126.23085)"
       x1="-1.0698583"
       y1="-159.05258"
       x2="445.88806"
       y2="-158.37997" />
    <linearGradient
       inkscape:collect="always"
       xlink:href="#linearGradient1737"
       id="linearGradient3976"
       gradientUnits="userSpaceOnUse"
       gradientTransform="matrix(0.26458333,0,0,0.26458333,82.822089,126.23085)"
       x1="-1.0698583"
       y1="-159.05258"
       x2="445.88806"
       y2="-158.37997" />
    <linearGradient
       inkscape:collect="always"
       xlink:href="#linearGradient1737"
       id="linearGradient3978"
       gradientUnits="userSpaceOnUse"
       gradientTransform="matrix(0.26458333,0,0,0.26458333,82.822089,126.23085)"
       x1="-1.0698583"
       y1="-159.05258"
       x2="445.88806"
       y2="-158.37997" />
    <linearGradient
       inkscape:collect="always"
       xlink:href="#linearGradient1737"
       id="linearGradient3980"
       gradientUnits="userSpaceOnUse"
       gradientTransform="matrix(0.26458333,0,0,0.26458333,82.822089,126.23085)"
       x1="-1.0698583"
       y1="-159.05258"
       x2="445.88806"
       y2="-158.37997" />
    <linearGradient
       inkscape:collect="always"
       xlink:href="#linearGradient1737"
       id="linearGradient3982"
       gradientUnits="userSpaceOnUse"
       gradientTransform="matrix(0.26458333,0,0,0.26458333,82.822089,126.23085)"
       x1="-1.0698583"
       y1="-159.05258"
       x2="445.88806"
       y2="-158.37997" />
    <linearGradient
       inkscape:collect="always"
       xlink:href="#linearGradient1737"
       id="linearGradient3984"
       gradientUnits="userSpaceOnUse"
       gradientTransform="matrix(0.26458333,0,0,0.26458333,82.822089,126.23085)"
       x1="-1.0698583"
       y1="-159.05258"
       x2="445.88806"
       y2="-158.37997" />
    <linearGradient
       inkscape:collect="always"
       xlink:href="#linearGradient1737"
       id="linearGradient3986"
       gradientUnits="userSpaceOnUse"
       gradientTransform="matrix(0.26458333,0,0,0.26458333,82.822089,126.23085)"
       x1="-1.0698583"
       y1="-159.05258"
       x2="445.88806"
       y2="-158.37997" />
    <linearGradient
       inkscape:collect="always"
       xlink:href="#linearGradient1737"
       id="linearGradient3988"
       gradientUnits="userSpaceOnUse"
       gradientTransform="matrix(0.26458333,0,0,0.26458333,82.822089,126.23085)"
       x1="-1.0698583"
       y1="-159.05258"
       x2="445.88806"
       y2="-158.37997" />
    <linearGradient
       inkscape:collect="always"
       xlink:href="#linearGradient1737"
       id="linearGradient3990"
       gradientUnits="userSpaceOnUse"
       gradientTransform="matrix(0.26458333,0,0,0.26458333,82.822089,126.23085)"
       x1="-1.0698583"
       y1="-159.05258"
       x2="445.88806"
       y2="-158.37997" />
    <linearGradient
       inkscape:collect="always"
       xlink:href="#linearGradient1737"
       id="linearGradient3992"
       gradientUnits="userSpaceOnUse"
       gradientTransform="matrix(0.26458333,0,0,0.26458333,82.822089,126.23085)"
       x1="-1.0698583"
       y1="-159.05258"
       x2="445.88806"
       y2="-158.37997" />
    <linearGradient
       inkscape:collect="always"
       xlink:href="#linearGradient1737"
       id="linearGradient3994"
       gradientUnits="userSpaceOnUse"
       gradientTransform="matrix(0.26458333,0,0,0.26458333,82.822089,126.23085)"
       x1="-1.0698583"
       y1="-159.05258"
       x2="445.88806"
       y2="-158.37997" />
    <linearGradient
       inkscape:collect="always"
       xlink:href="#linearGradient1737"
       id="linearGradient3996"
       gradientUnits="userSpaceOnUse"
       gradientTransform="matrix(0.26458333,0,0,0.26458333,82.822089,126.23085)"
       x1="-1.0698583"
       y1="-159.05258"
       x2="445.88806"
       y2="-158.37997" />
    <linearGradient
       inkscape:collect="always"
       xlink:href="#linearGradient1737"
       id="linearGradient3998"
       gradientUnits="userSpaceOnUse"
       gradientTransform="matrix(0.26458333,0,0,0.26458333,82.822089,126.23085)"
       x1="-1.0698583"
       y1="-159.05258"
       x2="445.88806"
       y2="-158.37997" />
    <linearGradient
       inkscape:collect="always"
       xlink:href="#linearGradient1737"
       id="linearGradient4000"
       gradientUnits="userSpaceOnUse"
       gradientTransform="matrix(0.26458333,0,0,0.26458333,82.822089,126.23085)"
       x1="-1.0698583"
       y1="-159.05258"
       x2="445.88806"
       y2="-158.37997" />
    <linearGradient
       inkscape:collect="always"
       xlink:href="#linearGradient1737"
       id="linearGradient4002"
       gradientUnits="userSpaceOnUse"
       gradientTransform="matrix(0.26458333,0,0,0.26458333,82.822089,126.23085)"
       x1="-1.0698583"
       y1="-159.05258"
       x2="445.88806"
       y2="-158.37997" />
    <linearGradient
       inkscape:collect="always"
       xlink:href="#linearGradient1737"
       id="linearGradient4004"
       gradientUnits="userSpaceOnUse"
       gradientTransform="matrix(0.26458333,0,0,0.26458333,82.822089,126.23085)"
       x1="-1.0698583"
       y1="-159.05258"
       x2="445.88806"
       y2="-158.37997" />
    <linearGradient
       inkscape:collect="always"
       xlink:href="#linearGradient1737"
       id="linearGradient4006"
       gradientUnits="userSpaceOnUse"
       gradientTransform="matrix(0.26458333,0,0,0.26458333,82.822089,126.23085)"
       x1="-1.0698583"
       y1="-159.05258"
       x2="445.88806"
       y2="-158.37997" />
  </defs>
  <sodipodi:namedview
     id="base"
     pagecolor="#ffffff"
     bordercolor="#666666"
     borderopacity="1.0"
     inkscape:pageopacity="0.0"
     inkscape:pageshadow="2"
     inkscape:zoom="1.4"
     inkscape:cx="354.58355"
     inkscape:cy="795.57537"
     inkscape:document-units="mm"
     inkscape:current-layer="layer1"
     showgrid="false"
     inkscape:window-width="1920"
     inkscape:window-height="1027"
     inkscape:window-x="-8"
     inkscape:window-y="-8"
     inkscape:window-maximized="1" />
  <metadata
     id="metadata5">
    <rdf:RDF>
      <cc:Work
         rdf:about="">
        <dc:format>image/svg+xml</dc:format>
        <dc:type
           rdf:resource="http://purl.org/dc/dcmitype/StillImage" />
        <dc:title />
      </cc:Work>
    </rdf:RDF>
  </metadata>
  <g
     inkscape:label="Layer 1"
     inkscape:groupmode="layer"
     id="layer1">
    <path
       style="fill:url(#radialGradient1753);fill-opacity:1;stroke:url(#radialGradient1741);stroke-width:0.25435042;stroke-miterlimit:4;stroke-dasharray:none;stroke-opacity:1"
       d="m 41.454189,94.9716 v 29.34498 H 169.1544 V 94.9716 Z m 43.163775,9.41235 h 0.984435 v 2.63549 h 1.385962 v 1.00562 h -1.385962 v 4.29639 h -0.984435 v -4.29639 h -1.43919 v -1.00562 h 1.43919 z m 3.105235,0 h 0.983919 v 3.29178 c 0.423333,-0.33866 0.9315,-0.55035 1.492417,-0.55035 1.280583,0 2.31808,1.07954 2.455664,2.42362 0,0.14817 -2.2e-5,0.30677 -0.02119,2.76211 h -0.942062 v -3.0055 c -0.201084,-0.70909 -0.772748,-1.20665 -1.492414,-1.20665 -0.709084,0 -1.28075,0.50813 -1.492417,1.18546 l -0.01033,3.02669 h -0.931209 l -0.04238,-0.0109 z m 49.728751,0 h 0.98443 v 2.63549 h 1.38596 v 1.00562 h -1.38596 v 4.29639 h -0.98443 v -4.29639 h -1.43919 v -1.00562 h 1.43919 z m -72.648282,0.0109 h 0.973584 v 7.92665 h -0.973584 z m -3.882967,0.48679 3.217376,7.43986 h -1.15342 l -0.497644,-1.16376 h -3.132624 l -0.518832,1.16376 h -1.121378 z m 48.348469,0 3.21737,7.43986 h -1.15341 l -0.49765,-1.16376 h -3.13262 l -0.51883,1.16376 h -1.12138 z m -27.227795,0.10594 c 0.264583,0 0.497644,0.23254 0.497644,0.49712 0,0.27517 -0.233061,0.49765 -0.497644,0.49765 -0.275167,0 -0.497126,-0.22248 -0.497126,-0.49765 0,-0.26458 0.221959,-0.49712 0.497126,-0.49712 z m 37.165685,0 c 0.26459,0 0.49765,0.23254 0.49765,0.49712 0,0.27517 -0.23306,0.49765 -0.49765,0.49765 -0.27516,0 -0.49712,-0.22248 -0.49712,-0.49765 0,-0.26458 0.22196,-0.49712 0.49712,-0.49712 z m 21.74545,0 c 0.26458,0 0.49764,0.23254 0.49764,0.49712 0,0.27517 -0.23306,0.49765 -0.49764,0.49765 -0.27517,0 -0.49713,-0.22248 -0.49713,-0.49765 0,-0.26458 0.22196,-0.49712 0.49713,-0.49712 z m -62.672145,2.03191 h 0.952397 v 0.65629 c 0.455083,-0.37041 1.00521,-0.60358 1.64021,-0.60358 v 0.93173 c -0.92075,0 -1.555543,0.76181 -1.64021,1.66139 v 2.65618 h -0.952397 z m 15.127758,0 h 0.973585 v 0.52917 c 0.41275,-0.33867 0.93123,-0.52917 1.481564,-0.52917 0.804333,0 1.524124,0.4443 1.979207,1.11105 0.455084,-0.66675 1.185251,-1.11105 2.031918,-1.11105 0.899583,0 1.651243,0.52888 2.106333,1.29088 0.22225,0.34925 0.32794,0.76212 0.38085,1.18546 l -0.0109,2.80448 h -0.9524 v -3.06907 c -0.22225,-0.71966 -0.80427,-1.20613 -1.523933,-1.20613 -0.751417,0 -1.354378,0.50794 -1.555461,1.25936 v 3.01584 h -0.974101 v -0.063 l 0.03204,-3.00602 c -0.211666,-0.71966 -0.793935,-1.20613 -1.513601,-1.20613 -0.677334,0 -1.238147,0.41249 -1.481564,1.04749 v 3.2489 h -0.973585 z m 27.010237,0 h 0.97359 v 0.52917 c 0.41275,-0.33867 0.93123,-0.52917 1.48156,-0.52917 0.80433,0 1.52412,0.4443 1.9792,1.11105 0.45509,-0.66675 1.18526,-1.11105 2.03192,-1.11105 0.89959,0 1.65125,0.52888 2.10633,1.29088 0.22225,0.34925 0.32794,0.76212 0.38086,1.18546 l -0.0103,2.80448 h -0.95291 v -3.06907 c -0.22225,-0.71966 -0.80427,-1.20613 -1.52394,-1.20613 -0.75141,0 -1.35437,0.50794 -1.55546,1.25936 v 3.01584 h -0.97358 v -0.063 l 0.0315,-3.00602 c -0.21167,-0.71966 -0.79393,-1.20613 -1.5136,-1.20613 -0.67733,0 -1.23815,0.41249 -1.48156,1.04749 v 3.2489 h -0.97359 z m 13.85394,0 h 0.96273 v 5.30201 h -0.96273 v -0.59222 c -0.43392,0.37042 -0.98427,0.59222 -1.60869,0.59222 -1.397,0 -2.54041,-1.1639 -2.54041,-2.63499 0,-1.43933 1.14341,-2.61431 2.54041,-2.61431 0.62442,0 1.17477,0.22232 1.60869,0.59273 z m -52.696528,0.0103 h 0.952397 v 5.28133 h -0.952397 z m 31.617708,0 h 0.96273 v 0.50798 c 0.41275,-0.30692 0.91029,-0.50798 1.45004,-0.50798 1.32292,0 2.37077,1.11133 2.48719,2.466 v 2.81533 h -0.96325 v -3.07992 c -0.20108,-0.70908 -0.80427,-1.20613 -1.52394,-1.20613 -0.67733,0 -1.20662,0.42334 -1.45004,1.05834 v 3.23805 h -0.96273 z m 5.54798,0 h 0.9524 v 5.28133 h -0.9524 z m 21.74544,0 h 0.9524 v 5.28133 h -0.9524 z m 7.50756,0 h 0.96324 v 0.50798 c 0.41275,-0.30692 0.90978,-0.50798 1.44953,-0.50798 1.32291,0 2.37077,1.11133 2.48718,2.466 v 2.81533 h -0.96324 v -3.07992 c -0.20109,-0.70908 -0.80428,-1.20613 -1.52394,-1.20613 -0.67734,0 -1.20611,0.42334 -1.44953,1.05834 v 3.23805 h -0.96324 z m -78.832401,0.0108 c 0.60325,0 1.163939,0.21173 1.619022,0.59273 v -0.59273 h 0.994773 v 5.21777 c 0,0.84666 -0.391523,1.60838 -0.994773,2.08463 -0.455083,0.34925 -0.98398,0.5612 -1.576646,0.5612 -0.899584,0 -1.661605,-0.46604 -2.137855,-1.17512 l 0.57154,-0.98392 v -0.032 h 0.02119 l -0.02119,0.032 c 0.211667,0.68792 0.836065,1.19579 1.566315,1.19579 0.762,0 1.386146,-0.52933 1.576646,-1.22783 v -0.89969 -0.0951 c -0.03175,0 -0.01063,0.0109 -0.04238,0.0109 -0.423334,0.37042 -0.973397,0.58188 -1.576647,0.58188 -0.582083,0 -1.100606,-0.20106 -1.523939,-0.50798 -0.28575,-0.22225 -0.508413,-0.49767 -0.68833,-0.78342 -0.22225,-0.41275 -0.359666,-0.85702 -0.359666,-1.35444 0,-1.44991 1.153768,-2.62464 2.571935,-2.62464 z m 5.880261,0 c 1.407584,0 2.561085,1.17448 2.561085,2.63498 0,1.47109 -1.153501,2.6355 -2.561085,2.6355 -1.418166,0 -2.571419,-1.16441 -2.571419,-2.6355 0,-1.4605 1.153253,-2.63498 2.571419,-2.63498 z m 69.59782,0 c 1.40758,0 2.56108,1.17448 2.56108,2.63498 0,1.47109 -1.1535,2.6355 -2.56108,2.6355 -1.41817,0 -2.57142,-1.16441 -2.57142,-2.6355 0,-1.4605 1.15325,-2.63498 2.57142,-2.63498 z m -83.719439,0.57154 -1.121894,2.58227 h 2.243791 z m 48.348469,0 -1.1219,2.58227 h 2.2438 z m -40.107111,0.37052 c -0.910167,0 -1.640726,0.75125 -1.640726,1.68258 0,0.17992 0.03183,0.35984 0.08475,0.52917 0.116417,0.32808 0.28602,0.59267 0.54002,0.79375 0.28575,0.23283 0.624375,0.34934 1.015958,0.34934 0.41275,0 0.751395,-0.13796 1.037145,-0.38138 0.243417,-0.21166 0.41275,-0.48634 0.529167,-0.81442 0.01058,-0.0741 0.02096,-0.1695 0.05271,-0.69866 -0.116416,-0.81492 -0.782939,-1.46038 -1.619022,-1.46038 z m 5.880261,0.0212 c -0.910166,0 -1.64021,0.75098 -1.64021,1.67173 0,0.92075 0.730044,1.67225 1.64021,1.67225 0.899584,0 1.629876,-0.7515 1.629876,-1.67225 0,-0.92075 -0.730292,-1.67173 -1.629876,-1.67173 z m 69.59782,0 c -0.91017,0 -1.64021,0.75098 -1.64021,1.67173 0,0.92075 0.73004,1.67225 1.64021,1.67225 0.89958,0 1.62987,-0.7515 1.62987,-1.67225 0,-0.92075 -0.73029,-1.67173 -1.62987,-1.67173 z m -11.97653,0.0315 c -0.889,0 -1.61954,0.75148 -1.61954,1.65106 0,0.92075 0.73054,1.67225 1.61954,1.67225 0.81492,0 1.49227,-0.62479 1.60869,-1.4397 v -0.44442 c -0.11642,-0.81492 -0.79377,-1.43919 -1.60869,-1.43919 z"
       id="rect1721"
       inkscape:connector-curvature="0" />
    <text
       xml:space="preserve"
       style="font-style:normal;font-variant:normal;font-weight:normal;font-stretch:normal;font-size:10.58333302px;line-height:1.25;font-family:'Ikaros Sans';-inkscape-font-specification:'Ikaros Sans, Normal';font-variant-ligatures:normal;font-variant-caps:normal;font-variant-numeric:normal;font-feature-settings:normal;text-align:start;letter-spacing:0px;word-spacing:0px;writing-mode:lr-tb;text-anchor:start;fill:url(#linearGradient1591);fill-opacity:1;stroke:url(#linearGradient1593);stroke-width:0.2;stroke-miterlimit:4;stroke-dasharray:none;stroke-opacity:1"
       x="21.864962"
       y="48.749554"
       id="text12"><tspan
         sodipodi:role="line"
         id="tspan10"
         x="21.864962"
         y="48.749554"
         style="font-style:normal;font-variant:normal;font-weight:normal;font-stretch:normal;font-size:10.58333302px;font-family:'Ikaros Sans';-inkscape-font-specification:'Ikaros Sans, Normal';font-variant-ligatures:normal;font-variant-caps:normal;font-variant-numeric:normal;font-feature-settings:normal;text-align:start;writing-mode:lr-tb;text-anchor:start;fill:url(#linearGradient1591);fill-opacity:1;stroke:url(#linearGradient1593);stroke-width:0.2;stroke-miterlimit:4;stroke-dasharray:none;stroke-opacity:1">Algorithm Animation</tspan></text>
    <text
       id="text2382"
       y="65.854805"
       x="79.327911"
       style="font-style:normal;font-variant:normal;font-weight:normal;font-stretch:normal;font-size:10.58333302px;line-height:1.25;font-family:'Ikaros Sans';-inkscape-font-specification:'Ikaros Sans, Normal';font-variant-ligatures:normal;font-variant-caps:normal;font-variant-numeric:normal;font-feature-settings:normal;text-align:start;letter-spacing:0px;word-spacing:0px;writing-mode:lr-tb;text-anchor:start;fill:url(#linearGradient2384);fill-opacity:1;stroke:url(#linearGradient2386);stroke-width:0.2;stroke-miterlimit:4;stroke-dasharray:none;stroke-opacity:1"
       xml:space="preserve"><tspan
         style="font-style:normal;font-variant:normal;font-weight:normal;font-stretch:normal;font-size:10.58333302px;font-family:'Ikaros Sans';-inkscape-font-specification:'Ikaros Sans, Normal';font-variant-ligatures:normal;font-variant-caps:normal;font-variant-numeric:normal;font-feature-settings:normal;text-align:start;writing-mode:lr-tb;text-anchor:start;fill:url(#linearGradient2384);fill-opacity:1;stroke:url(#linearGradient2386);stroke-width:0.2;stroke-miterlimit:4;stroke-dasharray:none;stroke-opacity:1"
         y="65.854805"
         x="79.327911"
         id="tspan2380"
         sodipodi:role="line">Algorithm Animation</tspan></text>
    <g
       transform="translate(-21.604031,76.172533)"
       id="g3332">
      <g
         aria-label="Algorithm Animation"
         style="font-style:normal;font-variant:normal;font-weight:normal;font-stretch:normal;font-size:10.58333302px;line-height:1.25;font-family:'Ikaros Sans';-inkscape-font-specification:'Ikaros Sans, Normal';font-variant-ligatures:normal;font-variant-caps:normal;font-variant-numeric:normal;font-feature-settings:normal;text-align:start;letter-spacing:0px;word-spacing:0px;writing-mode:lr-tb;text-anchor:start;fill:url(#linearGradient1591-6);fill-opacity:1;stroke:url(#linearGradient1591-6);stroke-width:0.2;stroke-miterlimit:4;stroke-dasharray:none;stroke-opacity:1"
         id="text12-7">
        <path
           d="m 50.224345,76.064097 0.497417,1.164167 h 1.153583 l -3.217333,-7.440083 -3.20675,7.440083 h 1.121833 l 0.518583,-1.164167 z m -0.4445,-0.963083 h -2.243667 l 1.121834,-2.582333 z"
           style="font-style:normal;font-variant:normal;font-weight:normal;font-stretch:normal;font-size:10.58333302px;font-family:'Ikaros Sans';-inkscape-font-specification:'Ikaros Sans, Normal';font-variant-ligatures:normal;font-variant-caps:normal;font-variant-numeric:normal;font-feature-settings:normal;text-align:start;writing-mode:lr-tb;text-anchor:start;fill:url(#linearGradient3936);fill-opacity:1;stroke:url(#linearGradient3938);stroke-width:0.2;stroke-miterlimit:4;stroke-dasharray:none;stroke-opacity:1"
           id="path3334"
           inkscape:connector-curvature="0" />
        <path
           d="m 53.514433,69.301347 h -0.973666 v 7.926917 h 0.973666 z"
           style="font-style:normal;font-variant:normal;font-weight:normal;font-stretch:normal;font-size:10.58333302px;font-family:'Ikaros Sans';-inkscape-font-specification:'Ikaros Sans, Normal';font-variant-ligatures:normal;font-variant-caps:normal;font-variant-numeric:normal;font-feature-settings:normal;text-align:start;writing-mode:lr-tb;text-anchor:start;fill:url(#linearGradient3940);fill-opacity:1;stroke:url(#linearGradient3942);stroke-width:0.2;stroke-miterlimit:4;stroke-dasharray:none;stroke-opacity:1"
           id="path3336"
           inkscape:connector-curvature="0" />
        <path
           d="m 58.518536,71.947181 v 0.592666 c -0.455084,-0.381 -1.016,-0.592666 -1.61925,-0.592666 -1.418167,0 -2.57175,1.17475 -2.57175,2.624666 0,0.497417 0.137583,0.941917 0.359833,1.354667 0.179917,0.28575 0.402167,0.560917 0.687917,0.783167 0.423333,0.306916 0.941917,0.508 1.524,0.508 0.60325,0 1.153583,-0.211667 1.576916,-0.582084 0.03175,0 0.01058,-0.01058 0.04233,-0.01058 v 0.09525 0.899583 c -0.1905,0.6985 -0.814917,1.227667 -1.576917,1.227667 -0.73025,0 -1.354666,-0.508 -1.566333,-1.195917 l -0.5715,0.98425 c 0.47625,0.709083 1.23825,1.17475 2.137833,1.17475 0.592667,0 1.121833,-0.211667 1.576917,-0.560917 0.60325,-0.47625 0.994833,-1.23825 0.994833,-2.084916 v -5.217583 z m -1.61925,4.296833 c -0.391583,0 -0.73025,-0.116417 -1.016,-0.34925 -0.254,-0.201083 -0.423333,-0.465667 -0.53975,-0.79375 -0.05292,-0.169333 -0.08467,-0.34925 -0.08467,-0.529167 0,-0.931333 0.73025,-1.68275 1.640417,-1.68275 0.836083,0 1.502833,0.645584 1.61925,1.4605 -0.03175,0.529167 -0.04233,0.624417 -0.05292,0.6985 -0.116417,0.328084 -0.28575,0.60325 -0.529167,0.814917 -0.28575,0.243417 -0.624416,0.381 -1.037166,0.381 z m -1.524,1.375833 v 0.03175 l 0.02117,-0.03175 z"
           style="font-style:normal;font-variant:normal;font-weight:normal;font-stretch:normal;font-size:10.58333302px;font-family:'Ikaros Sans';-inkscape-font-specification:'Ikaros Sans, Normal';font-variant-ligatures:normal;font-variant-caps:normal;font-variant-numeric:normal;font-feature-settings:normal;text-align:start;writing-mode:lr-tb;text-anchor:start;fill:url(#linearGradient3944);fill-opacity:1;stroke:url(#linearGradient3946);stroke-width:0.2;stroke-miterlimit:4;stroke-dasharray:none;stroke-opacity:1"
           id="path3338"
           inkscape:connector-curvature="0" />
        <path
           d="m 62.779816,71.947181 c -1.418167,0 -2.57175,1.17475 -2.57175,2.63525 0,1.471083 1.153583,2.63525 2.57175,2.63525 1.407583,0 2.561166,-1.164167 2.561166,-2.63525 0,-1.4605 -1.153583,-2.63525 -2.561166,-2.63525 z m 0,4.307416 c -0.910167,0 -1.640417,-0.751416 -1.640417,-1.672166 0,-0.92075 0.73025,-1.672167 1.640417,-1.672167 0.899583,0 1.629833,0.751417 1.629833,1.672167 0,0.92075 -0.73025,1.672166 -1.629833,1.672166 z"
           style="font-style:normal;font-variant:normal;font-weight:normal;font-stretch:normal;font-size:10.58333302px;font-family:'Ikaros Sans';-inkscape-font-specification:'Ikaros Sans, Normal';font-variant-ligatures:normal;font-variant-caps:normal;font-variant-numeric:normal;font-feature-settings:normal;text-align:start;writing-mode:lr-tb;text-anchor:start;fill:url(#linearGradient3948);fill-opacity:1;stroke:url(#linearGradient3950);stroke-width:0.2;stroke-miterlimit:4;stroke-dasharray:none;stroke-opacity:1"
           id="path3340"
           inkscape:connector-curvature="0" />
        <path
           d="m 66.969989,71.926014 h -0.9525 v 5.30225 h 0.9525 v -2.656417 c 0.08467,-0.899583 0.719667,-1.661583 1.640417,-1.661583 v -0.931333 c -0.635,0 -1.185334,0.232833 -1.640417,0.60325 z"
           style="font-style:normal;font-variant:normal;font-weight:normal;font-stretch:normal;font-size:10.58333302px;font-family:'Ikaros Sans';-inkscape-font-specification:'Ikaros Sans, Normal';font-variant-ligatures:normal;font-variant-caps:normal;font-variant-numeric:normal;font-feature-settings:normal;text-align:start;writing-mode:lr-tb;text-anchor:start;fill:url(#linearGradient3952);fill-opacity:1;stroke:url(#linearGradient3954);stroke-width:0.2;stroke-miterlimit:4;stroke-dasharray:none;stroke-opacity:1"
           id="path3342"
           inkscape:connector-curvature="0" />
        <path
           d="m 70.265705,71.936597 h -0.9525 v 5.281084 h 0.9525 z m -0.98425,-1.545166 c 0,0.275166 0.22225,0.497416 0.497417,0.497416 0.264583,0 0.497416,-0.22225 0.497416,-0.497416 0,-0.264584 -0.232833,-0.497417 -0.497416,-0.497417 -0.275167,0 -0.497417,0.232833 -0.497417,0.497417 z"
           style="font-style:normal;font-variant:normal;font-weight:normal;font-stretch:normal;font-size:10.58333302px;font-family:'Ikaros Sans';-inkscape-font-specification:'Ikaros Sans, Normal';font-variant-ligatures:normal;font-variant-caps:normal;font-variant-numeric:normal;font-feature-settings:normal;text-align:start;writing-mode:lr-tb;text-anchor:start;fill:url(#linearGradient3956);fill-opacity:1;stroke:url(#linearGradient3958);stroke-width:0.2;stroke-miterlimit:4;stroke-dasharray:none;stroke-opacity:1"
           id="path3344"
           inkscape:connector-curvature="0" />
        <path
           d="m 73.339501,71.926014 v -2.63525 h -0.98425 v 2.63525 h -1.439333 v 1.005417 h 1.439333 v 4.296833 h 0.98425 v -4.296833 h 1.386417 v -1.005417 z"
           style="font-style:normal;font-variant:normal;font-weight:normal;font-stretch:normal;font-size:10.58333302px;font-family:'Ikaros Sans';-inkscape-font-specification:'Ikaros Sans, Normal';font-variant-ligatures:normal;font-variant-caps:normal;font-variant-numeric:normal;font-feature-settings:normal;text-align:start;writing-mode:lr-tb;text-anchor:start;fill:url(#linearGradient3960);fill-opacity:1;stroke:url(#linearGradient3962);stroke-width:0.2;stroke-miterlimit:4;stroke-dasharray:none;stroke-opacity:1"
           id="path3346"
           inkscape:connector-curvature="0" />
        <path
           d="m 80.392295,74.455431 c -0.137583,-1.344084 -1.17475,-2.423584 -2.455333,-2.423584 -0.560917,0 -1.068917,0.211667 -1.49225,0.550334 v -3.291417 h -0.98425 v 7.916333 l 0.04233,0.01058 h 0.931333 l 0.01058,-3.026834 c 0.211666,-0.677333 0.783166,-1.185333 1.49225,-1.185333 0.719666,0 1.291166,0.497417 1.49225,1.2065 v 3.005667 h 0.941916 c 0.02117,-2.455334 0.02117,-2.614084 0.02117,-2.76225 z"
           style="font-style:normal;font-variant:normal;font-weight:normal;font-stretch:normal;font-size:10.58333302px;font-family:'Ikaros Sans';-inkscape-font-specification:'Ikaros Sans, Normal';font-variant-ligatures:normal;font-variant-caps:normal;font-variant-numeric:normal;font-feature-settings:normal;text-align:start;writing-mode:lr-tb;text-anchor:start;fill:url(#linearGradient3964);fill-opacity:1;stroke:url(#linearGradient3966);stroke-width:0.2;stroke-miterlimit:4;stroke-dasharray:none;stroke-opacity:1"
           id="path3348"
           inkscape:connector-curvature="0" />
        <path
           d="m 90.09887,74.402514 c -0.05292,-0.423333 -0.15875,-0.836083 -0.381,-1.185333 -0.455083,-0.762 -1.2065,-1.291167 -2.106083,-1.291167 -0.846667,0 -1.576917,0.4445 -2.032,1.11125 -0.455084,-0.66675 -1.17475,-1.11125 -1.979084,-1.11125 -0.550333,0 -1.068916,0.1905 -1.481666,0.529167 V 71.926014 H 81.14537 v 5.30225 h 0.973667 v -3.249083 c 0.243417,-0.635 0.804333,-1.04775 1.481666,-1.04775 0.719667,0 1.30175,0.486833 1.513417,1.2065 l -0.03175,3.005666 v 0.0635 h 0.973667 v -3.01625 c 0.201083,-0.751416 0.804333,-1.259416 1.55575,-1.259416 0.719666,0 1.30175,0.486833 1.524,1.2065 v 3.069166 h 0.9525 z"
           style="font-style:normal;font-variant:normal;font-weight:normal;font-stretch:normal;font-size:10.58333302px;font-family:'Ikaros Sans';-inkscape-font-specification:'Ikaros Sans, Normal';font-variant-ligatures:normal;font-variant-caps:normal;font-variant-numeric:normal;font-feature-settings:normal;text-align:start;writing-mode:lr-tb;text-anchor:start;fill:url(#linearGradient3968);fill-opacity:1;stroke:url(#linearGradient3970);stroke-width:0.2;stroke-miterlimit:4;stroke-dasharray:none;stroke-opacity:1"
           id="path3350"
           inkscape:connector-curvature="0" />
        <path
           d="m 98.572814,76.064097 0.497416,1.164167 h 1.15358 l -3.21733,-7.440083 -3.206749,7.440083 h 1.121833 l 0.518583,-1.164167 z m -0.4445,-0.963083 h -2.243667 l 1.121833,-2.582333 z"
           style="font-style:normal;font-variant:normal;font-weight:normal;font-stretch:normal;font-size:10.58333302px;font-family:'Ikaros Sans';-inkscape-font-specification:'Ikaros Sans, Normal';font-variant-ligatures:normal;font-variant-caps:normal;font-variant-numeric:normal;font-feature-settings:normal;text-align:start;writing-mode:lr-tb;text-anchor:start;fill:url(#linearGradient3972);fill-opacity:1;stroke:url(#linearGradient3974);stroke-width:0.2;stroke-miterlimit:4;stroke-dasharray:none;stroke-opacity:1"
           id="path3352"
           inkscape:connector-curvature="0" />
        <path
           d="m 105.83066,74.402514 c -0.11642,-1.354667 -1.16417,-2.465917 -2.48709,-2.465917 -0.53975,0 -1.03716,0.201084 -1.44991,0.508 v -0.508 h -0.96309 v 5.291667 h 0.96309 v -3.2385 c 0.24341,-0.635 0.77258,-1.058333 1.44991,-1.058333 0.71967,0 1.32292,0.497416 1.524,1.2065 v 3.07975 h 0.96309 z"
           style="font-style:normal;font-variant:normal;font-weight:normal;font-stretch:normal;font-size:10.58333302px;font-family:'Ikaros Sans';-inkscape-font-specification:'Ikaros Sans, Normal';font-variant-ligatures:normal;font-variant-caps:normal;font-variant-numeric:normal;font-feature-settings:normal;text-align:start;writing-mode:lr-tb;text-anchor:start;fill:url(#linearGradient3976);fill-opacity:1;stroke:url(#linearGradient3978);stroke-width:0.2;stroke-miterlimit:4;stroke-dasharray:none;stroke-opacity:1"
           id="path3354"
           inkscape:connector-curvature="0" />
        <path
           d="m 107.43139,71.936597 h -0.9525 v 5.281084 h 0.9525 z m -0.98425,-1.545166 c 0,0.275166 0.22225,0.497416 0.49742,0.497416 0.26458,0 0.49742,-0.22225 0.49742,-0.497416 0,-0.264584 -0.23284,-0.497417 -0.49742,-0.497417 -0.27517,0 -0.49742,0.232833 -0.49742,0.497417 z"
           style="font-style:normal;font-variant:normal;font-weight:normal;font-stretch:normal;font-size:10.58333302px;font-family:'Ikaros Sans';-inkscape-font-specification:'Ikaros Sans, Normal';font-variant-ligatures:normal;font-variant-caps:normal;font-variant-numeric:normal;font-feature-settings:normal;text-align:start;writing-mode:lr-tb;text-anchor:start;fill:url(#linearGradient3980);fill-opacity:1;stroke:url(#linearGradient3982);stroke-width:0.2;stroke-miterlimit:4;stroke-dasharray:none;stroke-opacity:1"
           id="path3356"
           inkscape:connector-curvature="0" />
        <path
           d="m 117.10919,74.402514 c -0.0529,-0.423333 -0.15875,-0.836083 -0.381,-1.185333 -0.45508,-0.762 -1.2065,-1.291167 -2.10608,-1.291167 -0.84667,0 -1.57692,0.4445 -2.032,1.11125 -0.45508,-0.66675 -1.17475,-1.11125 -1.97908,-1.11125 -0.55034,0 -1.06892,0.1905 -1.48167,0.529167 v -0.529167 h -0.97367 v 5.30225 h 0.97367 v -3.249083 c 0.24342,-0.635 0.80433,-1.04775 1.48167,-1.04775 0.71966,0 1.30175,0.486833 1.51341,1.2065 l -0.0318,3.005666 v 0.0635 h 0.97367 v -3.01625 c 0.20108,-0.751416 0.80433,-1.259416 1.55575,-1.259416 0.71967,0 1.30175,0.486833 1.524,1.2065 v 3.069166 h 0.9525 z"
           style="font-style:normal;font-variant:normal;font-weight:normal;font-stretch:normal;font-size:10.58333302px;font-family:'Ikaros Sans';-inkscape-font-specification:'Ikaros Sans, Normal';font-variant-ligatures:normal;font-variant-caps:normal;font-variant-numeric:normal;font-feature-settings:normal;text-align:start;writing-mode:lr-tb;text-anchor:start;fill:url(#linearGradient3984);fill-opacity:1;stroke:url(#linearGradient3986);stroke-width:0.2;stroke-miterlimit:4;stroke-dasharray:none;stroke-opacity:1"
           id="path3358"
           inkscape:connector-curvature="0" />
        <path
           d="m 122.00944,71.926014 v 0.645583 c -0.43392,-0.370416 -0.98425,-0.592666 -1.60867,-0.592666 -1.397,0 -2.54,1.17475 -2.54,2.614083 0,1.471083 1.143,2.63525 2.54,2.63525 0.62442,0 1.17475,-0.22225 1.60867,-0.592667 v 0.592667 h 0.96308 v -5.30225 z m -1.60867,4.339167 c -0.889,0 -1.61925,-0.751417 -1.61925,-1.672167 0,-0.899583 0.73025,-1.651 1.61925,-1.651 0.81492,0 1.49225,0.624417 1.60867,1.439333 v 0.4445 c -0.11642,0.814917 -0.79375,1.439334 -1.60867,1.439334 z"
           style="font-style:normal;font-variant:normal;font-weight:normal;font-stretch:normal;font-size:10.58333302px;font-family:'Ikaros Sans';-inkscape-font-specification:'Ikaros Sans, Normal';font-variant-ligatures:normal;font-variant-caps:normal;font-variant-numeric:normal;font-feature-settings:normal;text-align:start;writing-mode:lr-tb;text-anchor:start;fill:url(#linearGradient3988);fill-opacity:1;stroke:url(#linearGradient3990);stroke-width:0.2;stroke-miterlimit:4;stroke-dasharray:none;stroke-opacity:1"
           id="path3360"
           inkscape:connector-curvature="0" />
        <path
           d="m 126.17348,71.926014 v -2.63525 h -0.98425 v 2.63525 h -1.43933 v 1.005417 h 1.43933 v 4.296833 h 0.98425 v -4.296833 h 1.38642 v -1.005417 z"
           style="font-style:normal;font-variant:normal;font-weight:normal;font-stretch:normal;font-size:10.58333302px;font-family:'Ikaros Sans';-inkscape-font-specification:'Ikaros Sans, Normal';font-variant-ligatures:normal;font-variant-caps:normal;font-variant-numeric:normal;font-feature-settings:normal;text-align:start;writing-mode:lr-tb;text-anchor:start;fill:url(#linearGradient3992);fill-opacity:1;stroke:url(#linearGradient3994);stroke-width:0.2;stroke-miterlimit:4;stroke-dasharray:none;stroke-opacity:1"
           id="path3362"
           inkscape:connector-curvature="0" />
        <path
           d="m 129.17684,71.936597 h -0.9525 v 5.281084 h 0.9525 z m -0.98425,-1.545166 c 0,0.275166 0.22225,0.497416 0.49741,0.497416 0.26459,0 0.49742,-0.22225 0.49742,-0.497416 0,-0.264584 -0.23283,-0.497417 -0.49742,-0.497417 -0.27516,0 -0.49741,0.232833 -0.49741,0.497417 z"
           style="font-style:normal;font-variant:normal;font-weight:normal;font-stretch:normal;font-size:10.58333302px;font-family:'Ikaros Sans';-inkscape-font-specification:'Ikaros Sans, Normal';font-variant-ligatures:normal;font-variant-caps:normal;font-variant-numeric:normal;font-feature-settings:normal;text-align:start;writing-mode:lr-tb;text-anchor:start;fill:url(#linearGradient3996);fill-opacity:1;stroke:url(#linearGradient3998);stroke-width:0.2;stroke-miterlimit:4;stroke-dasharray:none;stroke-opacity:1"
           id="path3364"
           inkscape:connector-curvature="0" />
        <path
           d="m 132.37763,71.947181 c -1.41817,0 -2.57175,1.17475 -2.57175,2.63525 0,1.471083 1.15358,2.63525 2.57175,2.63525 1.40758,0 2.56117,-1.164167 2.56117,-2.63525 0,-1.4605 -1.15359,-2.63525 -2.56117,-2.63525 z m 0,4.307416 c -0.91017,0 -1.64042,-0.751416 -1.64042,-1.672166 0,-0.92075 0.73025,-1.672167 1.64042,-1.672167 0.89958,0 1.62983,0.751417 1.62983,1.672167 0,0.92075 -0.73025,1.672166 -1.62983,1.672166 z"
           style="font-style:normal;font-variant:normal;font-weight:normal;font-stretch:normal;font-size:10.58333302px;font-family:'Ikaros Sans';-inkscape-font-specification:'Ikaros Sans, Normal';font-variant-ligatures:normal;font-variant-caps:normal;font-variant-numeric:normal;font-feature-settings:normal;text-align:start;writing-mode:lr-tb;text-anchor:start;fill:url(#linearGradient4000);fill-opacity:1;stroke:url(#linearGradient4002);stroke-width:0.2;stroke-miterlimit:4;stroke-dasharray:none;stroke-opacity:1"
           id="path3366"
           inkscape:connector-curvature="0" />
        <path
           d="m 140.6318,74.402514 c -0.11641,-1.354667 -1.16416,-2.465917 -2.48708,-2.465917 -0.53975,0 -1.03717,0.201084 -1.44992,0.508 v -0.508 h -0.96308 v 5.291667 h 0.96308 v -3.2385 c 0.24342,-0.635 0.77259,-1.058333 1.44992,-1.058333 0.71967,0 1.32292,0.497416 1.524,1.2065 v 3.07975 h 0.96308 z"
           style="font-style:normal;font-variant:normal;font-weight:normal;font-stretch:normal;font-size:10.58333302px;font-family:'Ikaros Sans';-inkscape-font-specification:'Ikaros Sans, Normal';font-variant-ligatures:normal;font-variant-caps:normal;font-variant-numeric:normal;font-feature-settings:normal;text-align:start;writing-mode:lr-tb;text-anchor:start;fill:url(#linearGradient4004);fill-opacity:1;stroke:url(#linearGradient4006);stroke-width:0.2;stroke-miterlimit:4;stroke-dasharray:none;stroke-opacity:1"
           id="path3368"
           inkscape:connector-curvature="0" />
      </g>
      <path
         style="fill:none;fill-opacity:1;stroke:none;stroke-width:0.2;stroke-miterlimit:4;stroke-dasharray:none;stroke-opacity:1"
         d="M 29.191431,59.878193 H 156.89163 V 89.223171 H 29.191431 Z"
         id="rect3327"
         inkscape:connector-curvature="0" />
    </g>
  </g>
</svg>
