<?xml version="1.0" encoding="UTF-8" standalone="no"?>
<!-- Created with Inkscape (http://www.inkscape.org/) -->

<svg
   xmlns:dc="http://purl.org/dc/elements/1.1/"
   xmlns:cc="http://creativecommons.org/ns#"
   xmlns:rdf="http://www.w3.org/1999/02/22-rdf-syntax-ns#"
   xmlns:svg="http://www.w3.org/2000/svg"
   xmlns="http://www.w3.org/2000/svg"
   xmlns:xlink="http://www.w3.org/1999/xlink"
   xmlns:sodipodi="http://sodipodi.sourceforge.net/DTD/sodipodi-0.dtd"
   xmlns:inkscape="http://www.inkscape.org/namespaces/inkscape"
   width="210mm"
   height="297mm"
   viewBox="0 0 210 297"
   version="1.1"
   id="svg1711"
   inkscape:version="0.92.5 (2060ec1f9f, 2020-04-08)"
   sodipodi:docname="testheading.svg">
  <defs
     id="defs1705">
    <linearGradient
       inkscape:collect="always"
       xlink:href="#linearGradient850"
       id="linearGradient2384"
       gradientUnits="userSpaceOnUse"
       gradientTransform="matrix(0.26458333,0,0,0.26458333,150.91863,122.47176)"
       x1="59.644428"
       y1="51.661701"
       x2="196.60236"
       y2="50.90575" />
    <linearGradient
       inkscape:collect="always"
       id="linearGradient850">
      <stop
         style="stop-color:#56aef2;stop-opacity:1;"
         offset="0"
         id="stop846" />
      <stop
         style="stop-color:#56aef2;stop-opacity:0;"
         offset="1"
         id="stop848" />
    </linearGradient>
    <linearGradient
       inkscape:collect="always"
       xlink:href="#linearGradient850"
       id="linearGradient1687"
       gradientUnits="userSpaceOnUse"
       gradientTransform="translate(49.845766,11.893494)"
       x1="59.644428"
       y1="51.661701"
       x2="196.60236"
       y2="50.90575" />
  </defs>
  <sodipodi:namedview
     id="base"
     pagecolor="#ffffff"
     bordercolor="#666666"
     borderopacity="1.0"
     inkscape:pageopacity="0.0"
     inkscape:pageshadow="2"
     inkscape:zoom="1.4"
     inkscape:cx="216.48227"
     inkscape:cy="732.88473"
     inkscape:document-units="mm"
     inkscape:current-layer="layer1"
     showgrid="false"
     inkscape:window-width="1920"
     inkscape:window-height="1027"
     inkscape:window-x="-8"
     inkscape:window-y="-8"
     inkscape:window-maximized="1" />
  <metadata
     id="metadata1708">
    <rdf:RDF>
      <cc:Work
         rdf:about="">
        <dc:format>image/svg+xml</dc:format>
        <dc:type
           rdf:resource="http://purl.org/dc/dcmitype/StillImage" />
        <dc:title></dc:title>
      </cc:Work>
    </rdf:RDF>
  </metadata>
  <g
     inkscape:label="Layer 1"
     inkscape:groupmode="layer"
     id="layer1">
    <g
       aria-label="Algorithm Animation"
       style="font-style:normal;font-variant:normal;font-weight:normal;font-stretch:normal;font-size:10.58333302px;line-height:1.25;font-family:'Ikaros Sans';-inkscape-font-specification:'Ikaros Sans, Normal';font-variant-ligatures:normal;font-variant-caps:normal;font-variant-numeric:normal;font-feature-settings:normal;text-align:start;letter-spacing:0px;word-spacing:0px;writing-mode:lr-tb;text-anchor:start;fill:url(#linearGradient2384);fill-opacity:1;stroke:url(#linearGradient2384);stroke-width:0.2;stroke-miterlimit:4;stroke-dasharray:none;stroke-opacity:1"
       id="text2382">
      <path
         id="path2319"
         style="font-style:normal;font-variant:normal;font-weight:normal;font-stretch:normal;font-size:10.58333302px;font-family:'Ikaros Sans';-inkscape-font-specification:'Ikaros Sans, Normal';font-variant-ligatures:normal;font-variant-caps:normal;font-variant-numeric:normal;font-feature-settings:normal;text-align:start;writing-mode:lr-tb;text-anchor:start;fill:url(#linearGradient2384);fill-opacity:1;stroke:url(#linearGradient2384);stroke-width:0.2;stroke-miterlimit:4;stroke-dasharray:none;stroke-opacity:1"
         d="m 174.68007,72.522959 c -0.11641,-1.354666 -1.16416,-2.465916 -2.48708,-2.465916 -0.53975,0 -1.03717,0.201083 -1.44992,0.508 v -0.508 h -0.96308 v 5.291666 h 0.96308 v -3.2385 c 0.24342,-0.635 0.77259,-1.058333 1.44992,-1.058333 0.71967,0 1.32292,0.497417 1.524,1.2065 v 3.07975 h 0.96308 z m -8.25417,-2.455333 c -1.41817,0 -2.57175,1.17475 -2.57175,2.63525 0,1.471083 1.15358,2.63525 2.57175,2.63525 1.40758,0 2.56117,-1.164167 2.56117,-2.63525 0,-1.4605 -1.15359,-2.63525 -2.56117,-2.63525 z m 0,4.307416 c -0.91017,0 -1.64042,-0.751416 -1.64042,-1.672166 0,-0.92075 0.73025,-1.672167 1.64042,-1.672167 0.89958,0 1.62983,0.751417 1.62983,1.672167 0,0.92075 -0.73025,1.672166 -1.62983,1.672166 z m -3.20079,-4.317999 h -0.9525 v 5.281083 h 0.9525 z m -0.98425,-1.545167 c 0,0.275167 0.22225,0.497417 0.49741,0.497417 0.26459,0 0.49742,-0.22225 0.49742,-0.497417 0,-0.264583 -0.23283,-0.497417 -0.49742,-0.497417 -0.27516,0 -0.49741,0.232834 -0.49741,0.497417 z m -2.01911,1.534583 v -2.63525 h -0.98425 v 2.63525 h -1.43933 v 1.005417 h 1.43933 v 4.296833 h 0.98425 v -4.296833 h 1.38642 v -1.005417 z m -4.16404,0 v 0.645584 c -0.43392,-0.370417 -0.98425,-0.592667 -1.60867,-0.592667 -1.397,0 -2.54,1.17475 -2.54,2.614083 0,1.471083 1.143,2.63525 2.54,2.63525 0.62442,0 1.17475,-0.22225 1.60867,-0.592667 v 0.592667 h 0.96308 v -5.30225 z m -1.60867,4.339167 c -0.889,0 -1.61925,-0.751417 -1.61925,-1.672167 0,-0.899583 0.73025,-1.651 1.61925,-1.651 0.81492,0 1.49225,0.624417 1.60867,1.439334 v 0.4445 c -0.11642,0.814916 -0.79375,1.439333 -1.60867,1.439333 z m -3.29158,-1.862667 c -0.0529,-0.423333 -0.15875,-0.836083 -0.381,-1.185333 -0.45508,-0.762 -1.2065,-1.291167 -2.10608,-1.291167 -0.84667,0 -1.57692,0.4445 -2.032,1.11125 -0.45508,-0.66675 -1.17475,-1.11125 -1.97908,-1.11125 -0.55034,0 -1.06892,0.1905 -1.48167,0.529167 v -0.529167 h -0.97367 v 5.30225 h 0.97367 v -3.249083 c 0.24342,-0.635 0.80433,-1.04775 1.48167,-1.04775 0.71966,0 1.30175,0.486833 1.51341,1.2065 l -0.0317,3.005666 v 0.0635 h 0.97367 v -3.016249 c 0.20108,-0.751417 0.80433,-1.259417 1.55575,-1.259417 0.71967,0 1.30175,0.486833 1.524,1.2065 v 3.069166 h 0.9525 z m -9.67779,-2.465916 h -0.9525 v 5.281083 h 0.9525 z m -0.98425,-1.545167 c 0,0.275167 0.22225,0.497417 0.49741,0.497417 0.26459,0 0.49742,-0.22225 0.49742,-0.497417 0,-0.264583 -0.23283,-0.497417 -0.49742,-0.497417 -0.27516,0 -0.49741,0.232834 -0.49741,0.497417 z m -0.61649,4.011083 c -0.11642,-1.354666 -1.16417,-2.465916 -2.48709,-2.465916 -0.53975,0 -1.03716,0.201083 -1.44991,0.508 v -0.508 h -0.96309 v 5.291666 h 0.96309 v -3.2385 c 0.24341,-0.635 0.77258,-1.058333 1.44991,-1.058333 0.71967,0 1.32292,0.497417 1.524,1.2065 v 3.07975 h 0.96309 z m -7.25785,1.661583 0.49742,1.164167 h 1.15358 l -3.21733,-7.440083 -3.20675,7.440083 h 1.12184 l 0.51858,-1.164167 z m -0.4445,-0.963083 h -2.24366 l 1.12183,-2.582333 z m -8.02944,-0.6985 c -0.0529,-0.423333 -0.15875,-0.836083 -0.381,-1.185333 -0.45508,-0.762 -1.2065,-1.291167 -2.10608,-1.291167 -0.84667,0 -1.57692,0.4445 -2.032,1.11125 -0.45509,-0.66675 -1.17475,-1.11125 -1.97909,-1.11125 -0.55033,0 -1.06891,0.1905 -1.48166,0.529167 v -0.529167 h -0.97367 v 5.30225 h 0.97367 v -3.249083 c 0.24341,-0.635 0.80433,-1.04775 1.48166,-1.04775 0.71967,0 1.30175,0.486833 1.51342,1.2065 l -0.0318,3.005666 v 0.0635 h 0.97367 v -3.016249 c 0.20108,-0.751417 0.80433,-1.259417 1.55575,-1.259417 0.71966,0 1.30175,0.486833 1.524,1.2065 v 3.069166 h 0.9525 z m -9.70657,0.05292 c -0.13759,-1.344083 -1.17475,-2.423583 -2.45534,-2.423583 -0.56091,0 -1.06891,0.211666 -1.49225,0.550333 v -3.291417 h -0.98425 v 7.916333 l 0.0423,0.01058 h 0.93133 l 0.0106,-3.026833 c 0.21167,-0.677334 0.78317,-1.185334 1.49225,-1.185334 0.71967,0 1.29117,0.497417 1.49225,1.2065 v 3.005667 h 0.94192 c 0.0212,-2.455333 0.0212,-2.614083 0.0212,-2.76225 z m -7.0528,-2.529417 v -2.63525 h -0.98425 v 2.63525 h -1.43933 v 1.005417 h 1.43933 v 4.296833 h 0.98425 v -4.296833 h 1.38642 v -1.005417 z m -3.07379,0.01058 h -0.9525 v 5.281083 h 0.9525 z m -0.98425,-1.545167 c 0,0.275167 0.22225,0.497417 0.49741,0.497417 0.26459,0 0.49742,-0.22225 0.49742,-0.497417 0,-0.264583 -0.23283,-0.497417 -0.49742,-0.497417 -0.27516,0 -0.49741,0.232834 -0.49741,0.497417 z m -2.31147,1.534583 h -0.9525 v 5.30225 h 0.9525 v -2.656416 c 0.0847,-0.899584 0.71967,-1.661584 1.64042,-1.661584 v -0.931333 c -0.635,0 -1.18534,0.232833 -1.64042,0.60325 z m -4.190173,0.02117 c -1.418167,0 -2.57175,1.17475 -2.57175,2.63525 0,1.471083 1.153583,2.63525 2.57175,2.63525 1.407583,0 2.561167,-1.164167 2.561167,-2.63525 0,-1.4605 -1.153584,-2.63525 -2.561167,-2.63525 z m 0,4.307416 c -0.910167,0 -1.640417,-0.751416 -1.640417,-1.672166 0,-0.92075 0.73025,-1.672167 1.640417,-1.672167 0.899583,0 1.629833,0.751417 1.629833,1.672167 0,0.92075 -0.73025,1.672166 -1.629833,1.672166 z m -4.26128,-4.307416 v 0.592667 c -0.455083,-0.381 -1.016,-0.592667 -1.61925,-0.592667 -1.418167,0 -2.57175,1.17475 -2.57175,2.624667 0,0.497416 0.137583,0.941916 0.359833,1.354666 0.179917,0.28575 0.402167,0.560917 0.687917,0.783167 0.423333,0.306916 0.941917,0.508 1.524,0.508 0.60325,0 1.153583,-0.211667 1.576917,-0.582084 0.03175,0 0.01058,-0.01058 0.04233,-0.01058 v 0.09525 0.899583 c -0.1905,0.6985 -0.814917,1.227667 -1.576917,1.227667 -0.73025,0 -1.354666,-0.508 -1.566333,-1.195917 l -0.5715,0.98425 c 0.47625,0.709084 1.23825,1.17475 2.137833,1.17475 0.592667,0 1.121834,-0.211666 1.576917,-0.560916 0.60325,-0.47625 0.994833,-1.23825 0.994833,-2.084917 v -5.217583 z m -1.61925,4.296833 c -0.391583,0 -0.73025,-0.116417 -1.016,-0.34925 -0.254,-0.201083 -0.423333,-0.465667 -0.53975,-0.79375 -0.05292,-0.169333 -0.08467,-0.34925 -0.08467,-0.529166 0,-0.931334 0.73025,-1.68275 1.640417,-1.68275 0.836083,0 1.502833,0.645583 1.61925,1.4605 -0.03175,0.529166 -0.04233,0.624416 -0.05292,0.6985 -0.116416,0.328083 -0.28575,0.603249 -0.529166,0.814916 -0.28575,0.243417 -0.624417,0.381 -1.037167,0.381 z m -1.524,1.375833 v 0.03175 l 0.02117,-0.03175 z m -1.860852,-8.318499 h -0.973667 v 7.926916 h 0.973667 z m -3.290089,6.762749 0.497417,1.164167 h 1.153583 l -3.217333,-7.440083 -3.20675,7.440083 h 1.121833 l 0.518584,-1.164167 z m -0.4445,-0.963083 H 81.58445 l 1.121833,-2.582333 z" />
    </g>
  </g>
</svg>
