<?xml version="1.0" encoding="UTF-8" standalone="no"?>
<!-- Created with Inkscape (http://www.inkscape.org/) -->

<svg
   xmlns:dc="http://purl.org/dc/elements/1.1/"
   xmlns:cc="http://creativecommons.org/ns#"
   xmlns:rdf="http://www.w3.org/1999/02/22-rdf-syntax-ns#"
   xmlns:svg="http://www.w3.org/2000/svg"
   xmlns="http://www.w3.org/2000/svg"
   xmlns:xlink="http://www.w3.org/1999/xlink"
   xmlns:sodipodi="http://sodipodi.sourceforge.net/DTD/sodipodi-0.dtd"
   xmlns:inkscape="http://www.inkscape.org/namespaces/inkscape"
   width="127.95457mm"
   height="29.599329mm"
   viewBox="0 0 127.95457 29.599329"
   version="1.1"
   id="svg1767"
   inkscape:version="0.92.5 (2060ec1f9f, 2020-04-08)"
   sodipodi:docname="website-heading-2.svg">
  <defs
     id="defs1761">
    <linearGradient
       inkscape:collect="always"
       id="linearGradient850">
      <stop
         style="stop-color:#56aef2;stop-opacity:1;"
         offset="0"
         id="stop846" />
      <stop
         style="stop-color:#56aef2;stop-opacity:0;"
         offset="1"
         id="stop848" />
    </linearGradient>
    <linearGradient
       inkscape:collect="always"
       xlink:href="#linearGradient850"
       id="linearGradient1670"
       gradientUnits="userSpaceOnUse"
       x1="59.644428"
       y1="51.661701"
       x2="196.60236"
       y2="50.90575"
       gradientTransform="translate(-7.6171815,-5.2117558)" />
    <radialGradient
       inkscape:collect="always"
       xlink:href="#linearGradient850"
       id="radialGradient2343"
       gradientUnits="userSpaceOnUse"
       gradientTransform="matrix(1.2254909,8.3192936e-4,4.5280262e-4,0.25869495,-11.890726,38.947978)"
       cx="89.535294"
       cy="94.476509"
       fx="89.535294"
       fy="94.476509"
       r="54.622986" />
    <radialGradient
       inkscape:collect="always"
       xlink:href="#linearGradient850"
       id="radialGradient2345"
       gradientUnits="userSpaceOnUse"
       gradientTransform="matrix(1.2254909,8.3192936e-4,4.5280262e-4,0.25869495,-11.890726,38.947978)"
       cx="89.535294"
       cy="94.476509"
       fx="89.535294"
       fy="94.476509"
       r="54.622986" />
  </defs>
  <sodipodi:namedview
     id="base"
     pagecolor="#ffffff"
     bordercolor="#666666"
     borderopacity="1.0"
     inkscape:pageopacity="0.0"
     inkscape:pageshadow="2"
     inkscape:zoom="0.98994949"
     inkscape:cx="130.04991"
     inkscape:cy="-115.752"
     inkscape:document-units="mm"
     inkscape:current-layer="layer1"
     showgrid="false"
     fit-margin-top="0"
     fit-margin-left="0"
     fit-margin-right="0"
     fit-margin-bottom="0"
     inkscape:window-width="1920"
     inkscape:window-height="1027"
     inkscape:window-x="-8"
     inkscape:window-y="-8"
     inkscape:window-maximized="1" />
  <metadata
     id="metadata1764">
    <rdf:RDF>
      <cc:Work
         rdf:about="">
        <dc:format>image/svg+xml</dc:format>
        <dc:type
           rdf:resource="http://purl.org/dc/dcmitype/StillImage" />
        <dc:title></dc:title>
      </cc:Work>
    </rdf:RDF>
  </metadata>
  <g
     inkscape:label="Layer 1"
     inkscape:groupmode="layer"
     id="layer1"
     transform="translate(-33.899557,-48.663425)">
    <path
       id="path2341"
       d="M 34.026732,48.7906 V 78.135578 H 161.72695 V 48.7906 Z m 43.163775,9.412348 h 0.984441 v 2.6355 h 1.385959 v 1.00562 h -1.385959 v 4.29638 h -0.984441 v -4.29638 h -1.43919 v -1.00562 h 1.43919 z m 3.10524,0 h 0.98392 v 3.29179 c 0.42333,-0.33867 0.9315,-0.55036 1.492411,-0.55036 1.280589,0 2.318078,1.07954 2.455669,2.42363 0,0.14816 -3.1e-5,0.30677 -0.02119,2.7621 h -0.94207 v -3.0055 c -0.201081,-0.70908 -0.772739,-1.20664 -1.492409,-1.20664 -0.70908,0 -1.28075,0.50812 -1.492422,1.18545 l -0.01029,3.02669 h -0.931212 l -0.0424,-0.0109 z m 49.728753,0 h 0.98443 v 2.6355 h 1.38596 v 1.00562 h -1.38596 v 4.29638 h -0.98443 v -4.29638 h -1.43919 v -1.00562 h 1.43919 z m -72.648288,0.0109 h 0.973583 v 7.92665 h -0.973583 z m -3.882967,0.48679 3.217375,7.43986 H 55.5572 l -0.497644,-1.16375 h -3.132624 l -0.518832,1.16375 h -1.121378 z m 48.348475,0 3.21737,7.43986 h -1.15341 l -0.49765,-1.16375 h -3.13262 l -0.518834,1.16375 h -1.121378 z m -27.227805,0.10594 c 0.264592,0 0.497653,0.23254 0.497653,0.49713 0,0.27516 -0.233061,0.49764 -0.497653,0.49764 -0.275158,0 -0.497117,-0.22248 -0.497117,-0.49764 0,-0.26459 0.221959,-0.49713 0.497117,-0.49713 z m 37.165695,0 c 0.26459,0 0.49765,0.23254 0.49765,0.49713 0,0.27516 -0.23306,0.49764 -0.49765,0.49764 -0.27516,0 -0.49712,-0.22248 -0.49712,-0.49764 0,-0.26459 0.22196,-0.49713 0.49712,-0.49713 z m 21.74545,0 c 0.26458,0 0.49764,0.23254 0.49764,0.49713 0,0.27516 -0.23306,0.49764 -0.49764,0.49764 -0.27517,0 -0.49713,-0.22248 -0.49713,-0.49764 0,-0.26459 0.22196,-0.49713 0.49713,-0.49713 z m -62.672152,2.03192 h 0.9524 v 0.65629 c 0.455078,-0.37042 1.005207,-0.60358 1.640207,-0.60358 v 0.93172 c -0.92075,0 -1.555538,0.76182 -1.640207,1.6614 v 2.65617 h -0.9524 z m 15.127759,0 h 0.97359 v 0.52916 c 0.41275,-0.33866 0.93123,-0.52916 1.481561,-0.52916 0.804328,0 1.524119,0.44429 1.97921,1.11104 0.455078,-0.66675 1.185249,-1.11104 2.03191,-1.11104 0.899589,0 1.651249,0.52887 2.106329,1.29087 0.22225,0.34925 0.327941,0.76213 0.38086,1.18546 l -0.0109,2.80448 h -0.95239 v -3.06906 c -0.22225,-0.71967 -0.80428,-1.20613 -1.523941,-1.20613 -0.75142,0 -1.354379,0.50794 -1.555459,1.25935 v 3.01584 h -0.974101 v -0.063 l 0.032,-3.00602 c -0.211671,-0.71967 -0.79394,-1.20613 -1.513601,-1.20613 -0.677339,0 -1.23815,0.41248 -1.481569,1.04748 v 3.2489 h -0.97358 z m 27.010243,0 h 0.97359 v 0.52916 c 0.41275,-0.33866 0.93123,-0.52916 1.48156,-0.52916 0.80433,0 1.52412,0.44429 1.9792,1.11104 0.45509,-0.66675 1.18526,-1.11104 2.03192,-1.11104 0.89959,0 1.65125,0.52887 2.10633,1.29087 0.22225,0.34925 0.32794,0.76213 0.38086,1.18546 l -0.0103,2.80448 h -0.95291 v -3.06906 c -0.22225,-0.71967 -0.80427,-1.20613 -1.52394,-1.20613 -0.75141,0 -1.35437,0.50794 -1.55546,1.25935 v 3.01584 h -0.97358 v -0.063 l 0.0315,-3.00602 c -0.21167,-0.71967 -0.79393,-1.20613 -1.5136,-1.20613 -0.67733,0 -1.23815,0.41248 -1.48156,1.04748 v 3.2489 h -0.97359 z m 13.85394,0 h 0.96273 v 5.302 h -0.96273 v -0.59221 c -0.43392,0.37041 -0.98427,0.59221 -1.60869,0.59221 -1.397,0 -2.54041,-1.1639 -2.54041,-2.63498 0,-1.43934 1.14341,-2.61431 2.54041,-2.61431 0.62442,0 1.17477,0.22231 1.60869,0.59273 z m -52.696532,0.0103 h 0.952399 v 5.28133 h -0.952399 z m 31.617712,0 h 0.96273 v 0.50798 c 0.41275,-0.30691 0.91029,-0.50798 1.45004,-0.50798 1.32292,0 2.37077,1.11134 2.48719,2.466 v 2.81533 h -0.96325 v -3.07991 c -0.20108,-0.70908 -0.80427,-1.20613 -1.52394,-1.20613 -0.67733,0 -1.20662,0.42333 -1.45004,1.05833 v 3.23805 h -0.96273 z m 5.54798,0 h 0.9524 v 5.28133 h -0.9524 z m 21.74544,0 h 0.9524 v 5.28133 h -0.9524 z m 7.50756,0 h 0.96324 v 0.50798 c 0.41275,-0.30691 0.90978,-0.50798 1.44953,-0.50798 1.32291,0 2.37077,1.11134 2.48718,2.466 v 2.81533 h -0.96324 v -3.07991 c -0.20109,-0.70908 -0.80428,-1.20613 -1.52394,-1.20613 -0.67734,0 -1.20611,0.42333 -1.44953,1.05833 v 3.23805 h -0.96324 z m -78.832408,0.0108 c 0.60325,0 1.163939,0.21173 1.619023,0.59273 v -0.59273 h 0.994772 v 5.21777 c 0,0.84667 -0.391522,1.60838 -0.994772,2.08463 -0.455084,0.34925 -0.983981,0.56121 -1.576647,0.56121 -0.899584,0 -1.661604,-0.46604 -2.137854,-1.17513 l 0.571539,-0.98391 v -0.032 h 0.02119 l -0.02119,0.032 c 0.211667,0.68791 0.836065,1.19579 1.566315,1.19579 0.762,0 1.386147,-0.52934 1.576647,-1.22784 v -0.89968 -0.0951 c -0.03175,0 -0.01064,0.0109 -0.04237,0.0109 -0.423333,0.37041 -0.973397,0.58187 -1.576647,0.58187 -0.582083,0 -1.100605,-0.20106 -1.523939,-0.50798 -0.28575,-0.22225 -0.508413,-0.49766 -0.688329,-0.78341 -0.22225,-0.41275 -0.359667,-0.85702 -0.359667,-1.35444 0,-1.44992 1.153768,-2.62465 2.571935,-2.62465 z m 5.880261,0 c 1.407584,0 2.561085,1.17449 2.561085,2.63499 0,1.47108 -1.153501,2.63549 -2.561085,2.63549 -1.418166,0 -2.571419,-1.16441 -2.571419,-2.63549 0,-1.4605 1.153253,-2.63499 2.571419,-2.63499 z m 69.597827,0 c 1.40758,0 2.56108,1.17449 2.56108,2.63499 0,1.47108 -1.1535,2.63549 -2.56108,2.63549 -1.41817,0 -2.57142,-1.16441 -2.57142,-2.63549 0,-1.4605 1.15325,-2.63499 2.57142,-2.63499 z m -83.719445,0.57155 -1.121895,2.58227 h 2.243791 z m 48.348475,0 -1.1219,2.58227 h 2.2438 z m -40.107118,0.37052 c -0.910167,0 -1.640726,0.75125 -1.640726,1.68258 0,0.17992 0.03183,0.35983 0.08475,0.52917 0.116418,0.32808 0.286021,0.59266 0.540021,0.79375 0.28575,0.23283 0.624374,0.34933 1.015958,0.34933 0.41275,0 0.751395,-0.13796 1.037145,-0.38137 0.243417,-0.21167 0.41275,-0.48634 0.529167,-0.81442 0.01058,-0.0741 0.02096,-0.1695 0.05271,-0.69867 -0.116416,-0.81492 -0.782939,-1.46037 -1.619022,-1.46037 z m 5.880261,0.0212 c -0.910166,0 -1.64021,0.75099 -1.64021,1.67174 0,0.92075 0.730044,1.67225 1.64021,1.67225 0.899584,0 1.629876,-0.7515 1.629876,-1.67225 0,-0.92075 -0.730292,-1.67174 -1.629876,-1.67174 z m 69.597827,0 c -0.91017,0 -1.64021,0.75099 -1.64021,1.67174 0,0.92075 0.73004,1.67225 1.64021,1.67225 0.89958,0 1.62987,-0.7515 1.62987,-1.67225 0,-0.92075 -0.73029,-1.67174 -1.62987,-1.67174 z m -11.97653,0.0315 c -0.889,0 -1.61954,0.75147 -1.61954,1.65106 0,0.92075 0.73054,1.67225 1.61954,1.67225 0.81492,0 1.49227,-0.62479 1.60869,-1.43971 v -0.44442 c -0.11642,-0.81491 -0.79377,-1.43918 -1.60869,-1.43918 z"
       style="fill:url(#radialGradient2343);fill-opacity:1;stroke:url(#radialGradient2345);stroke-width:0.25435042;stroke-miterlimit:4;stroke-dasharray:none;stroke-opacity:1"
       inkscape:connector-curvature="0" />
  </g>
</svg>
